_RobotoSerifTextWide-SuperWidth1400.ufo
<glyph name="seven" format="2">
  <advance width="665.8399999999999"/>
  <unicode hex="0037"/>
  <outline>
    <contour>
      <point x="267.65999999999997" y="462.944" type="line" smooth="yes"/>
      <point x="194.78000000000003" y="462.944"/>
      <point x="167.45999999999998" y="455.944"/>
      <point x="162.92000000000002" y="419.944" type="curve" smooth="yes"/>
      <point x="154.84000000000003" y="344.92" type="line"/>
      <point x="59.71999999999999" y="344.92" type="line"/>
      <point x="59.71999999999999" y="609.0" type="line"/>
      <point x="641.0600000000001" y="609.0" type="line"/>
      <point x="641.0600000000001" y="476.424" type="line"/>
      <point x="517.08" y="330.72"/>
      <point x="445.74000000000007" y="228.336"/>
      <point x="437.66" y="-77.0" type="curve"/>
      <point x="176.07999999999998" y="-77.0" type="line"/>
      <point x="200.85999999999999" y="213.352"/>
      <point x="448.28000000000003" y="413.11199999999997"/>
      <point x="557.5600000000001" y="497.744" type="curve"/>
      <point x="588.4200000000001" y="462.944" type="line"/>
    </contour>
  </outline>
</glyph>
<glyph name="C" format="2">
  <advance width="819"/>
  <unicode hex="0043"/>
  <outline>
    <contour>
      <point x="500.38" y="626.384" type="curve" smooth="yes"/>
      <point x="577.8" y="626.384"/>
      <point x="615.74" y="568.872"/>
      <point x="648.1399999999999" y="481.024" type="curve"/>
      <point x="784.7399999999999" y="481.024" type="line"/>
      <point x="784.7399999999999" y="710.0" type="line"/>
      <point x="669.3799999999999" y="710.0" type="line"/>
      <point x="644.5999999999999" y="534.528" type="line"/>
      <point x="721.48" y="522.048" type="line"/>
      <point x="681.54" y="636.032"/>
      <point x="621.8199999999999" y="720.0"/>
      <point x="450.81999999999994" y="720.0" type="curve" smooth="yes"/>
      <point x="224.64000000000001" y="720.0"/>
      <point x="33.4" y="573.992"/>
      <point x="33.4" y="355.0" type="curve" smooth="yes"/>
      <point x="33.4" y="137.16799999999998"/>
      <point x="214.02" y="-10.0"/>
      <point x="469.52" y="-10.0" type="curve" smooth="yes"/>
      <point x="664.8399999999999" y="-10.0"/>
      <point x="759.9600000000002" y="90.0"/>
      <point x="792.8200000000002" y="236.328" type="curve"/>
      <point x="693.1600000000001" y="268.47999999999996" type="line"/>
      <point x="670.3800000000001" y="158.472"/>
      <point x="608.6600000000001" y="83.61599999999999"/>
      <point x="513.54" y="83.61599999999999" type="curve" smooth="yes"/>
      <point x="403.26" y="83.61599999999999"/>
      <point x="354.1600000000001" y="182.816"/>
      <point x="354.1600000000001" y="355.0" type="curve" smooth="yes"/>
      <point x="354.1600000000001" y="518.864"/>
      <point x="398.18000000000006" y="626.384"/>
    </contour>
  </outline>
</glyph>
<glyph name="K" format="2">
  <advance width="981.06"/>
  <unicode hex="004B"/>
  <anchor x="445.74" y="741.0" name="top"/>
  <anchor x="445.74" y="0.0" name="bottom"/>
  <outline>
    <contour>
      <point x="26.319999999999993" y="0.0" type="line"/>
      <point x="451.82" y="0.0" type="line"/>
      <point x="451.82" y="76.11999999999999" type="line"/>
      <point x="442.2" y="76.11999999999999" type="line" smooth="yes"/>
      <point x="420.96" y="76.11999999999999"/>
      <point x="398.18000000000006" y="79.11999999999999"/>
      <point x="398.18000000000006" y="86.11999999999999" type="curve" smooth="yes"/>
      <point x="398.18000000000006" y="623.88" type="line" smooth="yes"/>
      <point x="398.18000000000006" y="630.88"/>
      <point x="434.12" y="633.88"/>
      <point x="469.5199999999999" y="633.88" type="curve" smooth="yes"/>
      <point x="482.68" y="633.88" type="line"/>
      <point x="482.68" y="710.0" type="line"/>
      <point x="26.319999999999993" y="710.0" type="line"/>
      <point x="26.319999999999993" y="633.88" type="line"/>
      <point x="37.94" y="633.88" type="line" smooth="yes"/>
      <point x="67.8" y="633.88"/>
      <point x="89.03999999999999" y="626.88"/>
      <point x="89.03999999999999" y="597.88" type="curve" smooth="yes"/>
      <point x="89.03999999999999" y="112.11999999999999" type="line" smooth="yes"/>
      <point x="89.03999999999999" y="83.11999999999999"/>
      <point x="67.8" y="76.11999999999999"/>
      <point x="37.94" y="76.11999999999999" type="curve" smooth="yes"/>
      <point x="26.319999999999993" y="76.11999999999999" type="line"/>
    </contour>
    <contour>
      <point x="515.08" y="0.0" type="line"/>
      <point x="963.3600000000001" y="0.0" type="line"/>
      <point x="963.3600000000001" y="76.11999999999999" type="line"/>
      <point x="951.2" y="76.11999999999999" type="line" smooth="yes"/>
      <point x="926.4199999999998" y="76.11999999999999"/>
      <point x="911.72" y="84.28"/>
      <point x="896.5600000000002" y="109.11999999999999" type="curve" smooth="yes"/>
      <point x="653.6800000000001" y="471.72" type="line"/>
      <point x="561.1" y="351.84" type="line"/>
      <point x="800.4399999999999" y="597.3919999999999" type="line" smooth="yes"/>
      <point x="831.3" y="627.048"/>
      <point x="850.0" y="633.88"/>
      <point x="887.9399999999998" y="633.88" type="curve" smooth="yes"/>
      <point x="913.2600000000001" y="633.88" type="line"/>
      <point x="913.2600000000001" y="710.0" type="line"/>
      <point x="593.5" y="710.0" type="line"/>
      <point x="593.5" y="633.88" type="line"/>
      <point x="606.1200000000001" y="633.88" type="line" smooth="yes"/>
      <point x="639.52" y="633.88"/>
      <point x="687.08" y="632.544"/>
      <point x="686.08" y="625.544" type="curve"/>
      <point x="427.0400000000001" y="363.168" type="line"/>
      <point x="427.0400000000001" y="332.856" type="line"/>
      <point x="569.7199999999999" y="86.11999999999999" type="line"/>
      <point x="569.7199999999999" y="79.11999999999999"/>
      <point x="545.94" y="76.11999999999999"/>
      <point x="524.16" y="76.11999999999999" type="curve" smooth="yes"/>
      <point x="515.08" y="76.11999999999999" type="line"/>
    </contour>
  </outline>
</glyph>
<glyph name="O" format="2">
  <advance width="967"/>
  <unicode hex="004F"/>
  <anchor x="472.06000000000006" y="741.0" name="top"/>
  <anchor x="472.06000000000006" y="0.0" name="bottom"/>
  <outline>
    <contour>
      <point x="483.68000000000006" y="720.0" type="curve" smooth="yes"/>
      <point x="217.55999999999995" y="720.0"/>
      <point x="33.4" y="575.3280000000001"/>
      <point x="33.4" y="355.0" type="curve" smooth="yes"/>
      <point x="33.4" y="134.008"/>
      <point x="217.55999999999995" y="-10.0"/>
      <point x="483.68000000000006" y="-10.0" type="curve" smooth="yes"/>
      <point x="750.3399999999999" y="-10.0"/>
      <point x="934.5" y="134.008"/>
      <point x="934.5" y="355.0" type="curve" smooth="yes"/>
      <point x="934.5" y="575.3280000000001"/>
      <point x="750.3399999999999" y="720.0"/>
    </contour>
    <contour>
      <point x="483.68000000000006" y="83.28" type="curve" smooth="yes"/>
      <point x="403.26000000000005" y="83.28"/>
      <point x="354.1600000000001" y="177.15200000000002"/>
      <point x="354.1600000000001" y="355.0" type="curve" smooth="yes"/>
      <point x="354.1600000000001" y="532.848"/>
      <point x="403.2600000000001" y="626.72"/>
      <point x="483.68000000000006" y="626.72" type="curve" smooth="yes"/>
      <point x="564.64" y="626.72"/>
      <point x="613.7399999999999" y="532.848"/>
      <point x="613.7399999999999" y="355.0" type="curve" smooth="yes"/>
      <point x="613.7399999999999" y="177.15200000000002"/>
      <point x="564.64" y="83.28"/>
    </contour>
  </outline>
</glyph>
<glyph name="W" format="2">
  <advance width="1229.48"/>
  <unicode hex="0057"/>
  <anchor x="641.0600000000002" y="741.0" name="top"/>
  <outline>
    <contour>
      <point x="12.16" y="710.0" type="line"/>
      <point x="12.16" y="633.88" type="line"/>
      <point x="20.240000000000002" y="633.88" type="line" smooth="yes"/>
      <point x="46.56" y="633.88"/>
      <point x="66.8" y="628.384"/>
      <point x="71.34000000000003" y="604.3679999999999" type="curve" smooth="yes"/>
      <point x="209.48000000000002" y="0.0" type="line"/>
      <point x="512.54" y="0.0" type="line"/>
      <point x="643.0600000000001" y="557.6400000000001" type="line"/>
      <point x="624.36" y="558.472" type="line"/>
      <point x="738.18" y="0.0" type="line"/>
      <point x="1026.08" y="0.0" type="line"/>
      <point x="1158.1399999999999" y="590.88" type="line" smooth="yes"/>
      <point x="1165.2200000000003" y="624.048"/>
      <point x="1181.92" y="633.88"/>
      <point x="1210.24" y="633.88" type="curve" smooth="yes"/>
      <point x="1217.3200000000002" y="633.88" type="line"/>
      <point x="1217.3200000000002" y="710.0" type="line"/>
      <point x="989.14" y="710.0" type="line"/>
      <point x="989.14" y="633.88" type="line"/>
      <point x="1006.8399999999999" y="633.88" type="line" smooth="yes"/>
      <point x="1026.0800000000002" y="633.88"/>
      <point x="1048.8600000000001" y="626.88"/>
      <point x="1048.8600000000001" y="615.88" type="curve"/>
      <point x="960.8200000000002" y="162.32" type="line"/>
      <point x="979.5200000000001" y="163.152" type="line"/>
      <point x="860.6200000000001" y="710.0" type="line"/>
      <point x="582.88" y="710.0" type="line"/>
      <point x="447.2800000000001" y="155.992" type="line"/>
      <point x="464.98" y="159.32" type="line"/>
      <point x="386.5600000000002" y="623.88" type="line"/>
      <point x="386.5600000000002" y="630.88"/>
      <point x="411.34000000000003" y="633.88"/>
      <point x="431.58000000000004" y="633.88" type="curve" smooth="yes"/>
      <point x="448.2800000000001" y="633.88" type="line"/>
      <point x="448.2800000000001" y="710.0" type="line"/>
    </contour>
  </outline>
</glyph>
<glyph name="Y" format="2">
  <advance width="833.3000000000001"/>
  <unicode hex="0059"/>
  <anchor x="410.34000000000003" y="741.0" name="top"/>
  <anchor x="410.34000000000003" y="0.0" name="bottom"/>
  <outline>
    <contour>
      <point x="264.11999999999995" y="324.984" type="line"/>
      <point x="264.11999999999995" y="112.11999999999999" type="line" smooth="yes"/>
      <point x="264.11999999999995" y="83.11999999999999"/>
      <point x="242.34000000000003" y="76.11999999999999"/>
      <point x="214.01999999999998" y="76.11999999999999" type="curve" smooth="yes"/>
      <point x="197.32000000000002" y="76.11999999999999" type="line"/>
      <point x="197.32000000000002" y="0.0" type="line"/>
      <point x="639.52" y="0.0" type="line"/>
      <point x="639.52" y="76.11999999999999" type="line"/>
      <point x="622.8199999999999" y="76.11999999999999" type="line" smooth="yes"/>
      <point x="594.5" y="76.11999999999999"/>
      <point x="573.26" y="83.11999999999999"/>
      <point x="573.26" y="112.11999999999999" type="curve" smooth="yes"/>
      <point x="573.26" y="324.984" type="line"/>
      <point x="561.1000000000001" y="277.984" type="line"/>
      <point x="754.8800000000001" y="592.88" type="line" smooth="yes"/>
      <point x="776.6600000000001" y="627.384"/>
      <point x="794.3600000000001" y="633.88"/>
      <point x="819.14" y="633.88" type="curve" smooth="yes"/>
      <point x="824.22" y="633.88" type="line"/>
      <point x="824.22" y="710.0" type="line"/>
      <point x="578.8" y="710.0" type="line"/>
      <point x="578.8" y="633.88" type="line"/>
      <point x="591.96" y="633.88" type="line" smooth="yes"/>
      <point x="621.8199999999999" y="633.88"/>
      <point x="648.1399999999999" y="626.88"/>
      <point x="648.1399999999999" y="615.88" type="curve"/>
      <point x="475.6" y="332.984" type="line"/>
      <point x="545.94" y="349.952" type="line"/>
      <point x="376.94000000000005" y="623.88" type="line"/>
      <point x="376.94000000000005" y="630.88"/>
      <point x="399.71999999999997" y="633.88"/>
      <point x="427.04" y="633.88" type="curve" smooth="yes"/>
      <point x="445.74" y="633.88" type="line"/>
      <point x="445.74" y="710.0" type="line"/>
      <point x="9.620000000000001" y="710.0" type="line"/>
      <point x="9.620000000000001" y="633.88" type="line"/>
      <point x="15.700000000000001" y="633.88" type="line" smooth="yes"/>
      <point x="39.48" y="633.88"/>
      <point x="52.1" y="633.88"/>
      <point x="68.8" y="607.88" type="curve" smooth="yes"/>
      <point x="279.28000000000003" y="279.984" type="line"/>
    </contour>
  </outline>
</glyph>
<glyph name="underscore" format="2">
  <advance width="569.72"/>
  <unicode hex="005F"/>
  <outline>
    <contour>
      <point x="-6.079999999999999" y="-70.03999999999999" type="line"/>
      <point x="-6.079999999999999" y="-167.48000000000002" type="line"/>
      <point x="575.26" y="-167.48000000000002" type="line"/>
      <point x="575.26" y="-70.03999999999999" type="line"/>
    </contour>
  </outline>
</glyph>
<glyph name="j" format="2">
  <advance width="386.5600000000001"/>
  <unicode hex="006A"/>
  <anchor x="189.24" y="551.0" name="top"/>
  <outline>
    <contour>
      <point x="55.63999999999999" y="-27.528" type="line" smooth="yes"/>
      <point x="55.63999999999999" y="-117.37599999999999"/>
      <point x="30.86000000000001" y="-146.544"/>
      <point x="-21.240000000000006" y="-146.544" type="curve" smooth="yes"/>
      <point x="-57.18000000000001" y="-146.544"/>
      <point x="-85.5" y="-136.55200000000002"/>
      <point x="-109.28" y="-128.55200000000002" type="curve"/>
      <point x="-109.28" y="-220.672" type="line"/>
      <point x="-91.57999999999998" y="-227.83999999999997"/>
      <point x="-33.400000000000006" y="-236.0"/>
      <point x="36.93999999999999" y="-236.0" type="curve" smooth="yes"/>
      <point x="250.96000000000004" y="-236.0"/>
      <point x="346.08000000000004" y="-173.2"/>
      <point x="346.08000000000004" y="-0.9040000000000106" type="curve" smooth="yes"/>
      <point x="346.08000000000004" y="512.992" type="line"/>
      <point x="3.539999999999992" y="512.992" type="line"/>
      <point x="3.539999999999992" y="438.704" type="line"/>
      <point x="12.16" y="436.704" type="line" smooth="yes"/>
      <point x="35.4" y="430.53599999999994"/>
      <point x="55.63999999999999" y="425.69599999999997"/>
      <point x="55.63999999999999" y="407.512" type="curve" smooth="yes"/>
    </contour>
    <contour>
      <point x="198.32" y="566.584" type="curve" smooth="yes"/>
      <point x="291.44000000000005" y="566.584"/>
      <point x="346.08000000000004" y="600.4"/>
      <point x="346.08000000000004" y="657.536" type="curve" smooth="yes"/>
      <point x="346.08000000000004" y="714.5039999999999"/>
      <point x="291.44000000000005" y="748.32"/>
      <point x="198.32" y="748.32" type="curve" smooth="yes"/>
      <point x="104.74000000000001" y="748.32"/>
      <point x="51.1" y="714.5039999999999"/>
      <point x="51.1" y="657.536" type="curve" smooth="yes"/>
      <point x="51.1" y="599.568"/>
      <point x="104.74000000000001" y="566.584"/>
    </contour>
  </outline>
</glyph>
<glyph name="ordfeminine" format="2">
  <advance width="612.1999999999999"/>
  <unicode hex="00AA"/>
  <outline>
    <contour>
      <point x="347.08000000000004" y="557.008" type="line"/>
      <point x="125.97999999999998" y="535.016"/>
      <point x="21.240000000000002" y="503.008"/>
      <point x="21.240000000000002" y="417.672" type="curve" smooth="yes"/>
      <point x="21.240000000000002" y="347.504"/>
      <point x="81.96000000000001" y="311.66400000000004"/>
      <point x="193.78000000000003" y="311.66400000000004" type="curve" smooth="yes"/>
      <point x="289.9" y="311.66400000000004"/>
      <point x="336.4600000000001" y="346.672"/>
      <point x="370.8600000000001" y="417.47999999999996" type="curve"/>
      <point x="414.88" y="471.296"/>
      <point x="343.5400000000001" y="449.984"/>
      <point x="341.0" y="449.152" type="curve"/>
      <point x="333.91999999999996" y="414.96799999999996"/>
      <point x="316.2199999999999" y="387.456"/>
      <point x="289.9" y="387.456" type="curve" smooth="yes"/>
      <point x="266.12" y="387.456"/>
      <point x="254.5" y="400.64"/>
      <point x="254.5" y="427.82399999999996" type="curve" smooth="yes"/>
      <point x="254.5" y="463.024"/>
      <point x="279.28000000000003" y="496.688"/>
      <point x="347.08000000000004" y="505.52000000000004" type="curve"/>
    </contour>
    <contour>
      <point x="345.08000000000004" y="320.0" type="line"/>
      <point x="597.04" y="320.0" type="line"/>
      <point x="597.04" y="381.8" type="line"/>
      <point x="590.96" y="383.46400000000006" type="line"/>
      <point x="574.2600000000001" y="388.456"/>
      <point x="566.1800000000001" y="389.96000000000004"/>
      <point x="566.1800000000001" y="404.144" type="curve" smooth="yes"/>
      <point x="566.1800000000001" y="575.864" type="line" smooth="yes"/>
      <point x="566.1800000000001" y="674.024"/>
      <point x="454.3600000000001" y="720.0"/>
      <point x="309.14" y="720.0" type="curve" smooth="yes"/>
      <point x="172.54000000000002" y="720.0"/>
      <point x="85.5" y="686.016"/>
      <point x="54.64" y="647.3679999999999" type="curve"/>
      <point x="54.64" y="587.192" type="line"/>
      <point x="243.88" y="587.192" type="line"/>
      <point x="243.88" y="658.016" type="line"/>
      <point x="199.85999999999999" y="654.68"/>
      <point x="184.15999999999997" y="625.704"/>
      <point x="220.10000000000002" y="605.688" type="curve"/>
      <point x="230.72" y="628.2"/>
      <point x="254.50000000000006" y="644.544"/>
      <point x="285.35999999999996" y="644.544" type="curve" smooth="yes"/>
      <point x="316.21999999999997" y="644.544"/>
      <point x="333.91999999999996" y="629.528"/>
      <point x="333.91999999999996" y="593.16" type="curve" smooth="yes"/>
      <point x="333.91999999999996" y="391.352" type="line"/>
      <point x="345.08000000000004" y="401.832" type="line"/>
    </contour>
  </outline>
</glyph>
<glyph name="logicalnot" format="2">
  <advance width="665.8399999999999"/>
  <unicode hex="00AC"/>
  <outline>
    <contour>
      <point x="423.5" y="334.36" type="line"/>
      <point x="423.5" y="134.368" type="line"/>
      <point x="600.58" y="134.368" type="line"/>
      <point x="600.58" y="407.60799999999995" type="line"/>
      <point x="65.26" y="407.60799999999995" type="line"/>
      <point x="65.26" y="280.216" type="line"/>
      <point x="472.06000000000006" y="280.216" type="line"/>
    </contour>
  </outline>
</glyph>
<glyph name="divide" format="2">
  <advance width="665.8399999999999"/>
  <unicode hex="00F7"/>
  <outline>
    <contour>
      <point x="462.44000000000005" y="130.90400000000002" type="curve" smooth="yes"/>
      <point x="462.44000000000005" y="183.544"/>
      <point x="414.88000000000005" y="220.856"/>
      <point x="332.91999999999996" y="220.856" type="curve" smooth="yes"/>
      <point x="250.95999999999998" y="220.856"/>
      <point x="203.39999999999998" y="183.544"/>
      <point x="203.39999999999998" y="130.90400000000002" type="curve" smooth="yes"/>
      <point x="203.39999999999998" y="76.768"/>
      <point x="250.95999999999998" y="40.28800000000001"/>
      <point x="332.91999999999996" y="40.28800000000001" type="curve" smooth="yes"/>
      <point x="414.88000000000005" y="40.28800000000001"/>
      <point x="462.44000000000005" y="76.768"/>
    </contour>
    <contour>
      <point x="462.44000000000005" y="550.9280000000001" type="curve" smooth="yes"/>
      <point x="462.44000000000005" y="604.4"/>
      <point x="414.88000000000005" y="641.712"/>
      <point x="332.91999999999996" y="641.712" type="curve" smooth="yes"/>
      <point x="250.95999999999998" y="641.712"/>
      <point x="203.39999999999998" y="604.4"/>
      <point x="203.39999999999998" y="550.9280000000001" type="curve" smooth="yes"/>
      <point x="203.39999999999998" y="497.79200000000003"/>
      <point x="250.95999999999998" y="461.144"/>
      <point x="332.91999999999996" y="461.144" type="curve" smooth="yes"/>
      <point x="414.88000000000005" y="461.144"/>
      <point x="462.44000000000005" y="497.79200000000003"/>
    </contour>
    <component base="minus" xOffset="39.96000000000002"/>
  </outline>
</glyph>
<glyph name="Aogonek" format="2">
  <advance width="880.4"/>
  <unicode hex="0104"/>
  <outline>
    <contour>
      <point x="191.24" y="309.152" type="line"/>
      <point x="172.54000000000002" y="224.032" type="line"/>
      <point x="489.76" y="224.032" type="line"/>
      <point x="488.76" y="309.152" type="line"/>
    </contour>
    <contour>
      <point x="12.16" y="0.0" type="line"/>
      <point x="248.42000000000002" y="0.0" type="line"/>
      <point x="248.42000000000002" y="76.11999999999999" type="line"/>
      <point x="234.26" y="76.11999999999999" type="line" smooth="yes"/>
      <point x="205.94000000000005" y="76.11999999999999"/>
      <point x="178.07999999999998" y="83.11999999999999"/>
      <point x="178.07999999999998" y="94.11999999999999" type="curve"/>
      <point x="404.2600000000001" y="710.0" type="line"/>
      <point x="288.9" y="710.0" type="line"/>
      <point x="68.80000000000001" y="119.11999999999999" type="line" smooth="yes"/>
      <point x="57.18" y="85.448"/>
      <point x="44.02" y="76.11999999999999"/>
      <point x="17.7" y="76.11999999999999" type="curve"/>
      <point x="12.16" y="76.11999999999999" type="line"/>
    </contour>
    <contour>
      <point x="606.1200000000001" y="62.632000000000005" type="curve"/>
      <point x="414.88000000000005" y="4.959999999999994"/>
      <point x="318.7600000000001" y="-50.376000000000005"/>
      <point x="318.7600000000001" y="-137.512" type="curve" smooth="yes"/>
      <point x="318.7600000000001" y="-207.824"/>
      <point x="387.56000000000006" y="-244.32"/>
      <point x="492.30000000000007" y="-244.32" type="curve" smooth="yes"/>
      <point x="590.9600000000002" y="-244.32"/>
      <point x="646.6" y="-214.504"/>
      <point x="689.6199999999999" y="-170.032" type="curve"/>
      <point x="632.4399999999998" y="-121.05599999999998" type="line"/>
      <point x="620.8199999999999" y="-130.56"/>
      <point x="600.58" y="-149.05599999999998"/>
      <point x="569.72" y="-149.05599999999998" type="curve" smooth="yes"/>
      <point x="542.4000000000001" y="-149.05599999999998"/>
      <point x="525.7" y="-135.72"/>
      <point x="525.7" y="-107.71199999999999" type="curve" smooth="yes"/>
      <point x="525.7" y="-72.536"/>
      <point x="550.48" y="-28.36"/>
      <point x="658.7600000000001" y="13.823999999999998" type="curve"/>
      <point x="642.0600000000001" y="27.479999999999997"/>
      <point x="618.28" y="41.480000000000004"/>
    </contour>
    <contour>
      <point x="531.24" y="0.0" type="line"/>
      <point x="868.2399999999999" y="0.0" type="line"/>
      <point x="868.2399999999999" y="76.11999999999999" type="line"/>
      <point x="863.1600000000001" y="76.11999999999999" type="line"/>
      <point x="835.8399999999999" y="76.11999999999999"/>
      <point x="819.14" y="81.448"/>
      <point x="811.0600000000002" y="104.11999999999999" type="curve" smooth="yes"/>
      <point x="584.8800000000001" y="710.0" type="line"/>
      <point x="332.91999999999996" y="710.0" type="line"/>
      <point x="301.06" y="642.048" type="line"/>
    </contour>
  </outline>
</glyph>
<glyph name="Oogonek" format="2">
  <advance width="967.3600000000001"/>
  <unicode hex="01EA"/>
  <outline>
    <contour>
      <point x="483.68000000000006" y="83.28" type="curve" smooth="yes"/>
      <point x="403.26000000000005" y="83.28"/>
      <point x="354.1600000000001" y="177.15200000000002"/>
      <point x="354.1600000000001" y="355.0" type="curve" smooth="yes"/>
      <point x="354.1600000000001" y="532.848"/>
      <point x="403.2600000000001" y="626.72"/>
      <point x="483.68000000000006" y="626.72" type="curve" smooth="yes"/>
      <point x="564.64" y="626.72"/>
      <point x="613.7399999999999" y="532.848"/>
      <point x="613.7399999999999" y="355.0" type="curve" smooth="yes"/>
      <point x="613.7399999999999" y="177.15200000000002"/>
      <point x="564.64" y="83.28"/>
    </contour>
    <contour>
      <point x="669.3800000000001" y="32.664" type="line"/>
      <point x="465.98" y="-9.351999999999999"/>
      <point x="355.70000000000005" y="-56.696"/>
      <point x="355.70000000000005" y="-140.008" type="curve" smooth="yes"/>
      <point x="355.70000000000005" y="-207.824"/>
      <point x="424.5" y="-244.32"/>
      <point x="529.24" y="-244.32" type="curve" smooth="yes"/>
      <point x="627.9" y="-244.32"/>
      <point x="683.54" y="-214.504"/>
      <point x="726.5600000000001" y="-170.032" type="curve"/>
      <point x="669.3800000000001" y="-121.05599999999998" type="line"/>
      <point x="657.7600000000001" y="-130.56"/>
      <point x="637.52" y="-149.05599999999998"/>
      <point x="606.12" y="-149.05599999999998" type="curve" smooth="yes"/>
      <point x="578.8" y="-149.05599999999998"/>
      <point x="562.6399999999999" y="-135.72"/>
      <point x="562.6399999999999" y="-107.71199999999999" type="curve" smooth="yes"/>
      <point x="562.6399999999999" y="-24.528"/>
      <point x="684.5666666671798" y="-13.09165333332177"/>
      <point x="819.1399999999999" y="93.47200000000001" type="curve" smooth="yes"/>
      <point x="893.02" y="157.31199999999998"/>
      <point x="934.5" y="251.32"/>
      <point x="934.5" y="355.0" type="curve" smooth="yes"/>
      <point x="934.5" y="575.3280000000001"/>
      <point x="750.3399999999999" y="720.0"/>
      <point x="483.68000000000006" y="720.0" type="curve" smooth="yes"/>
      <point x="217.55999999999995" y="720.0"/>
      <point x="33.4" y="575.3280000000001"/>
      <point x="33.4" y="355.0" type="curve" smooth="yes"/>
      <point x="33.4" y="134.008"/>
      <point x="217.55999999999995" y="-10.0"/>
      <point x="483.68000000000006" y="-10.0" type="curve" smooth="yes"/>
      <point x="540.8600000000001" y="-10.0"/>
      <point x="594.5" y="-3.168"/>
      <point x="644.5999999999999" y="8.832" type="curve"/>
    </contour>
  </outline>
</glyph>
<glyph name="uni20B4" format="2">
  <advance width="665.8399999999999"/>
  <unicode hex="20B4"/>
  <outline>
    <contour>
      <point x="23.780000000000005" y="470.328" type="line"/>
      <point x="23.780000000000005" y="394.36" type="line"/>
      <point x="642.0600000000001" y="394.36" type="line"/>
      <point x="642.0600000000001" y="470.328" type="line"/>
    </contour>
    <contour>
      <point x="23.780000000000005" y="332.64" type="line"/>
      <point x="23.780000000000005" y="256.672" type="line"/>
      <point x="642.0600000000001" y="256.672" type="line"/>
      <point x="642.0600000000001" y="332.64" type="line"/>
    </contour>
    <contour>
      <point x="333.91999999999996" y="720.0" type="curve" smooth="yes"/>
      <point x="197.32000000000002" y="720.0"/>
      <point x="101.2" y="680.168"/>
      <point x="72.34000000000002" y="661.824" type="curve"/>
      <point x="72.34000000000002" y="541.168" type="line"/>
      <point x="236.79999999999998" y="541.168" type="line"/>
      <point x="236.79999999999998" y="639.6719999999999" type="line"/>
      <point x="194.78000000000003" y="642.832"/>
      <point x="182.15999999999997" y="594.2"/>
      <point x="198.32" y="581.016" type="curve"/>
      <point x="228.18000000000004" y="609.3679999999999"/>
      <point x="251.95999999999998" y="626.888"/>
      <point x="293.44" y="626.888" type="curve" smooth="yes"/>
      <point x="335.46" y="626.888"/>
      <point x="363.78000000000003" y="605.024"/>
      <point x="363.78000000000003" y="569.0" type="curve" smooth="yes"/>
      <point x="363.78000000000003" y="511.67999999999995"/>
      <point x="302.05999999999995" y="474.832"/>
      <point x="217.55999999999997" y="452.976" type="curve"/>
      <point x="511.0" y="432.152" type="line"/>
      <point x="576.8" y="461.488"/>
      <point x="602.5800000000002" y="505.0"/>
      <point x="602.5800000000002" y="565.832" type="curve" smooth="yes"/>
      <point x="602.5800000000002" y="652.512"/>
      <point x="524.16" y="720.0"/>
    </contour>
    <contour>
      <point x="356.7" y="-10.0" type="curve" smooth="yes"/>
      <point x="488.76" y="-10.0"/>
      <point x="598.04" y="33.84"/>
      <point x="631.4399999999999" y="53.016" type="curve"/>
      <point x="631.4399999999999" y="196.16000000000003" type="line"/>
      <point x="455.36" y="196.16000000000003" type="line"/>
      <point x="455.36" y="85.128" type="line"/>
      <point x="496.84000000000003" y="81.968"/>
      <point x="512.5400000000001" y="133.8"/>
      <point x="499.3800000000001" y="136.144" type="curve"/>
      <point x="463.44" y="105.45599999999999"/>
      <point x="437.65999999999997" y="83.28"/>
      <point x="383.02" y="83.28" type="curve" smooth="yes"/>
      <point x="330.38000000000005" y="83.28"/>
      <point x="305.59999999999997" y="105.96"/>
      <point x="305.59999999999997" y="154.83999999999997" type="curve" smooth="yes"/>
      <point x="305.59999999999997" y="208.16799999999998"/>
      <point x="366.31999999999994" y="271.32000000000005"/>
      <point x="489.76" y="287.67999999999995" type="curve"/>
      <point x="160.38" y="294.328" type="line"/>
      <point x="102.19999999999999" y="274.656"/>
      <point x="63.260000000000005" y="227.656"/>
      <point x="63.260000000000005" y="162.68" type="curve" smooth="yes"/>
      <point x="63.260000000000005" y="53.0"/>
      <point x="156.84000000000003" y="-10.0"/>
    </contour>
  </outline>
</glyph>
<glyph name="servicemark" format="2">
  <advance width="1109.04"/>
  <unicode hex="2120"/>
  <outline>
    <contour>
      <point x="481.68" y="373.368" type="line"/>
      <point x="608.6600000000001" y="373.368" type="line"/>
      <point x="608.6600000000001" y="419.18399999999997" type="line"/>
      <point x="605.1199999999999" y="419.18399999999997" type="line" smooth="yes"/>
      <point x="593.5" y="419.18399999999997"/>
      <point x="580.3399999999999" y="420.52000000000004"/>
      <point x="580.3399999999999" y="423.352" type="curve" smooth="yes"/>
      <point x="580.3399999999999" y="701.168" type="line"/>
      <point x="567.1800000000001" y="700.168" type="line"/>
      <point x="671.9200000000002" y="372.368" type="line"/>
      <point x="778.6600000000001" y="372.368" type="line"/>
      <point x="887.9399999999998" y="699.336" type="line"/>
      <point x="875.3200000000002" y="700.168" type="line"/>
      <point x="875.3200000000002" y="423.352" type="line" smooth="yes"/>
      <point x="875.3200000000002" y="420.52000000000004"/>
      <point x="863.1600000000001" y="419.18399999999997"/>
      <point x="851.54" y="419.18399999999997" type="curve" smooth="yes"/>
      <point x="846.46" y="419.18399999999997" type="line"/>
      <point x="846.46" y="373.368" type="line"/>
      <point x="1062.02" y="373.368" type="line"/>
      <point x="1062.02" y="419.18399999999997" type="line"/>
      <point x="1056.94" y="419.18399999999997" type="line" smooth="yes"/>
      <point x="1042.78" y="419.18399999999997"/>
      <point x="1033.16" y="422.352"/>
      <point x="1033.16" y="435.352" type="curve" smooth="yes"/>
      <point x="1033.16" y="648.1840000000001" type="line" smooth="yes"/>
      <point x="1033.16" y="662.1840000000001"/>
      <point x="1042.78" y="665.016"/>
      <point x="1056.94" y="665.016" type="curve" smooth="yes"/>
      <point x="1062.02" y="665.016" type="line"/>
      <point x="1062.02" y="710.0" type="line"/>
      <point x="816.5999999999999" y="710.0" type="line"/>
      <point x="720.48" y="415.86400000000003" type="line"/>
      <point x="783.74" y="475.6" type="line"/>
      <point x="727.5600000000001" y="710.0" type="line"/>
      <point x="481.68" y="710.0" type="line"/>
      <point x="481.68" y="665.016" type="line"/>
      <point x="487.76000000000005" y="665.016" type="line" smooth="yes"/>
      <point x="500.38000000000005" y="665.016"/>
      <point x="510.0" y="662.1840000000001"/>
      <point x="510.0" y="648.1840000000001" type="curve" smooth="yes"/>
      <point x="510.0" y="435.352" type="line" smooth="yes"/>
      <point x="510.0" y="422.352"/>
      <point x="500.38000000000005" y="419.18399999999997"/>
      <point x="487.76000000000005" y="419.18399999999997" type="curve"/>
      <point x="481.68" y="419.18399999999997" type="line"/>
    </contour>
    <contour>
      <point x="250.95999999999998" y="417.016" type="curve" smooth="yes"/>
      <point x="185.70000000000002" y="417.016"/>
      <point x="147.28332260034" y="447.3443361976333"/>
      <point x="129.52" y="489.67999999999995" type="curve"/>
      <point x="59.72000000000001" y="489.67999999999995" type="line"/>
      <point x="59.72000000000001" y="370.2" type="line"/>
      <point x="116.35999999999999" y="370.2" type="line"/>
      <point x="125.97999999999999" y="454.69599999999997" type="line"/>
      <point x="117.9" y="462.856"/>
      <point x="101.2" y="463.504"/>
      <point x="84.5" y="479.496" type="curve"/>
      <point x="95.12000000000002" y="404.016"/>
      <point x="148.75999999999996" y="366.86400000000003"/>
      <point x="265.12" y="366.86400000000003" type="curve" smooth="yes"/>
      <point x="366.31999999999994" y="366.86400000000003"/>
      <point x="436.11999999999995" y="405.024"/>
      <point x="436.11999999999995" y="484.504" type="curve" smooth="yes"/>
      <point x="436.11999999999995" y="555.1803944826988"/>
      <point x="379.80664767982006" y="583.7917410154955"/>
      <point x="277.2800000000001" y="602.6400000000001" type="curve" smooth="yes"/>
      <point x="235.33542282440004" y="611.3081159625253"/>
      <point x="203.4" y="616.6871291430058"/>
      <point x="203.4" y="640.0" type="curve" smooth="yes"/>
      <point x="203.4" y="657.5223534883928"/>
      <point x="218.56" y="666.688"/>
      <point x="247.42000000000002" y="666.688" type="curve" smooth="yes"/>
      <point x="299.52" y="666.688"/>
      <point x="327.13178084012" y="643.196219364557"/>
      <point x="343.54" y="616.68" type="curve"/>
      <point x="408.80000000000007" y="616.68" type="line"/>
      <point x="408.80000000000007" y="714.336" type="line"/>
      <point x="354.1600000000001" y="714.336" type="line"/>
      <point x="341.0" y="643.336" type="line"/>
      <point x="354.1600000000001" y="633.008"/>
      <point x="379.48" y="637.512"/>
      <point x="385.02" y="634.3520000000001" type="curve"/>
      <point x="363.78000000000003" y="693.1840000000001"/>
      <point x="308.14" y="716.6719999999999"/>
      <point x="233.26" y="716.6719999999999" type="curve" smooth="yes"/>
      <point x="133.06" y="716.6719999999999"/>
      <point x="71.34" y="680.512"/>
      <point x="71.34" y="612.2" type="curve" smooth="yes"/>
      <point x="71.34" y="533.7139659131641"/>
      <point x="148.41743853613997" y="510.41366418309394"/>
      <point x="216.56" y="494.56" type="curve" smooth="yes"/>
      <point x="284.23216536538007" y="479.3995792044978"/>
      <point x="302.06000000000006" y="472.04251999999997"/>
      <point x="302.06000000000006" y="448.704" type="curve" smooth="yes"/>
      <point x="302.06000000000006" y="427.856"/>
      <point x="282.81999999999994" y="417.016"/>
    </contour>
  </outline>
</glyph>
<glyph name="partialdiff" format="2">
  <advance width="708.3200000000002"/>
  <unicode hex="2202"/>
  <outline>
    <contour>
      <point x="303.06" y="-10.335999999999999" type="curve" smooth="yes"/>
      <point x="537.32" y="-10.335999999999999"/>
      <point x="690.6199999999999" y="171.712"/>
      <point x="690.6199999999999" y="419.56" type="curve" smooth="yes"/>
      <point x="690.6199999999999" y="635.048"/>
      <point x="542.4" y="744.6719999999999"/>
      <point x="345.08000000000004" y="744.6719999999999" type="curve" smooth="yes"/>
      <point x="261.58000000000004" y="744.6719999999999"/>
      <point x="183.15999999999997" y="727.512"/>
      <point x="118.9" y="698.512" type="curve"/>
      <point x="158.38" y="621.232" type="line"/>
      <point x="203.39999999999998" y="640.232"/>
      <point x="244.88" y="655.7280000000001"/>
      <point x="291.44" y="655.7280000000001" type="curve" smooth="yes"/>
      <point x="379.4800000000001" y="655.7280000000001"/>
      <point x="417.41999999999996" y="601.568"/>
      <point x="417.41999999999996" y="468.2" type="curve" smooth="yes"/>
      <point x="417.41999999999996" y="275.496"/>
      <point x="379.48" y="73.61600000000001"/>
      <point x="328.38000000000005" y="73.61600000000001" type="curve" smooth="yes"/>
      <point x="299.52" y="73.61600000000001"/>
      <point x="291.44000000000005" y="110.31200000000001"/>
      <point x="291.44000000000005" y="194.856" type="curve" smooth="yes"/>
      <point x="291.44000000000005" y="331.368"/>
      <point x="324.84000000000003" y="434.048"/>
      <point x="396.18000000000006" y="434.048" type="curve" smooth="yes"/>
      <point x="427.0400000000001" y="434.048"/>
      <point x="463.98" y="407.86400000000003"/>
      <point x="485.2199999999999" y="374.312" type="curve"/>
      <point x="485.21999999999997" y="381.504"/>
      <point x="478.1399999999999" y="415.504"/>
      <point x="491.29999999999995" y="477.984" type="curve"/>
      <point x="486.21999999999997" y="489.66400000000004"/>
      <point x="459.9" y="518.0"/>
      <point x="368.85999999999996" y="518.0" type="curve" smooth="yes"/>
      <point x="180.61999999999995" y="518.0"/>
      <point x="17.700000000000003" y="374.984"/>
      <point x="17.700000000000003" y="216.136" type="curve" smooth="yes"/>
      <point x="17.700000000000003" y="84.664"/>
      <point x="99.66000000000001" y="-10.335999999999999"/>
    </contour>
  </outline>
</glyph>
<glyph name="minus" format="2">
  <advance width="665.8399999999999"/>
  <unicode hex="2212"/>
  <outline>
    <contour>
      <point x="600.58" y="404.784" type="line"/>
      <point x="65.26" y="404.784" type="line"/>
      <point x="65.26" y="277.216" type="line"/>
      <point x="600.58" y="277.216" type="line"/>
    </contour>
  </outline>
</glyph>
<glyph name="Pcircle" format="2">
  <advance width="1021.54"/>
  <unicode hex="24C5"/>
  <outline>
    <contour>
      <point x="154.84000000000003" y="355.0" type="curve" smooth="yes"/>
      <point x="154.84000000000003" y="531.016"/>
      <point x="297.52" y="668.032"/>
      <point x="510.0" y="668.032" type="curve" smooth="yes"/>
      <point x="723.0200000000002" y="668.032"/>
      <point x="866.7" y="531.016"/>
      <point x="866.7" y="355.0" type="curve" smooth="yes"/>
      <point x="866.7" y="178.98399999999998"/>
      <point x="723.0200000000002" y="41.96799999999999"/>
      <point x="510.0" y="41.96799999999999" type="curve" smooth="yes"/>
      <point x="297.52" y="41.96799999999999"/>
      <point x="154.84000000000003" y="178.98399999999998"/>
    </contour>
    <contour>
      <point x="35.400000000000006" y="355.0" type="curve" smooth="yes"/>
      <point x="35.400000000000006" y="133.008"/>
      <point x="235.26" y="-37.984"/>
      <point x="510.0" y="-37.984" type="curve" smooth="yes"/>
      <point x="785.7399999999999" y="-37.984"/>
      <point x="985.6000000000001" y="133.008"/>
      <point x="985.6000000000001" y="355.0" type="curve" smooth="yes"/>
      <point x="985.6000000000001" y="576.992"/>
      <point x="785.7399999999999" y="747.984"/>
      <point x="510.0" y="747.984" type="curve" smooth="yes"/>
      <point x="235.26" y="747.984"/>
      <point x="35.400000000000006" y="576.992"/>
    </contour>
    <contour>
      <point x="301.06" y="152.16799999999998" type="line"/>
      <point x="549.48" y="152.16799999999998" type="line"/>
      <point x="549.48" y="212.472" type="line"/>
      <point x="540.86" y="212.472" type="line" smooth="yes"/>
      <point x="522.1600000000001" y="212.472"/>
      <point x="510.0" y="214.30400000000003"/>
      <point x="510.0" y="218.30400000000003" type="curve" smooth="yes"/>
      <point x="510.0" y="288.352" type="line"/>
      <point x="551.48" y="288.352" type="line" smooth="yes"/>
      <point x="694.1600000000001" y="288.352"/>
      <point x="765.5" y="341.848"/>
      <point x="765.5" y="426.17600000000004" type="curve" smooth="yes"/>
      <point x="765.5" y="508.504"/>
      <point x="701.2399999999999" y="557.0"/>
      <point x="555.02" y="557.0" type="curve" smooth="yes"/>
      <point x="301.06" y="557.0" type="line"/>
      <point x="301.06" y="495.86400000000003" type="line"/>
      <point x="305.6" y="495.86400000000003" type="line" smooth="yes"/>
      <point x="323.29999999999995" y="495.86400000000003"/>
      <point x="340.0" y="491.86400000000003"/>
      <point x="340.0" y="475.86400000000003" type="curve" smooth="yes"/>
      <point x="340.0" y="232.472" type="line" smooth="yes"/>
      <point x="340.0" y="216.472"/>
      <point x="323.29999999999995" y="212.472"/>
      <point x="305.6" y="212.472" type="curve" smooth="yes"/>
      <point x="301.06" y="212.472" type="line"/>
    </contour>
    <contour>
      <point x="525.7" y="489.53599999999994" type="line" smooth="yes"/>
      <point x="569.72" y="489.53599999999994"/>
      <point x="595.5" y="471.5407200000127"/>
      <point x="595.5" y="426.17600000000004" type="curve" smooth="yes"/>
      <point x="595.5" y="379.0255345454881"/>
      <point x="569.72" y="354.152"/>
      <point x="522.1600000000001" y="354.152" type="curve" smooth="yes"/>
      <point x="510.0" y="354.152" type="line"/>
      <point x="510.0" y="489.53599999999994" type="line"/>
    </contour>
  </outline>
</glyph>
<glyph name="baht.proportional" format="2">
  <advance width="892.0200000000002"/>
  <outline>
    <contour>
      <point x="396.18000000000006" y="790.0" type="line"/>
      <point x="396.18000000000006" y="676.0" type="line"/>
      <point x="415.88" y="660.0" type="line"/>
      <point x="415.88" y="46.0" type="line"/>
      <point x="396.18000000000006" y="36.0" type="line"/>
      <point x="396.18000000000006" y="-111.68" type="line"/>
      <point x="526.7" y="-111.68" type="line"/>
      <point x="526.7" y="38.0" type="line"/>
      <point x="505.4600000000001" y="50.0" type="line"/>
      <point x="505.4600000000001" y="662.0" type="line"/>
      <point x="526.7" y="673.0" type="line"/>
      <point x="526.7" y="790.0" type="line"/>
    </contour>
    <contour>
      <point x="529.24" y="708.32" type="curve"/>
      <point x="41.480000000000004" y="708.32" type="line"/>
      <point x="41.480000000000004" y="632.2" type="line"/>
      <point x="53.63999999999999" y="632.2" type="line" smooth="yes"/>
      <point x="82.96000000000001" y="632.2"/>
      <point x="104.74" y="625.2"/>
      <point x="104.74" y="596.2" type="curve" smooth="yes"/>
      <point x="104.74" y="113.8" type="line" smooth="yes"/>
      <point x="104.74" y="84.8"/>
      <point x="82.96000000000001" y="77.8"/>
      <point x="53.63999999999999" y="77.8" type="curve" smooth="yes"/>
      <point x="41.480000000000004" y="77.8" type="line"/>
      <point x="41.480000000000004" y="1.6799999999999997" type="line"/>
      <point x="520.62" y="1.6799999999999997" type="line" smooth="yes"/>
      <point x="738.1800000000001" y="1.6799999999999997"/>
      <point x="852.5399999999998" y="77.016"/>
      <point x="852.5399999999998" y="201.84799999999998" type="curve" smooth="yes"/>
      <point x="852.5399999999998" y="317.99505333329375"/>
      <point x="729.0999999999999" y="373.52000000000004"/>
      <point x="580.34" y="380.17600000000004" type="curve"/>
      <point x="588.4200000000001" y="371.32000000000005" type="line"/>
      <point x="723.02" y="377.144"/>
      <point x="833.3" y="426.6714823256249"/>
      <point x="833.3" y="539.152" type="curve" smooth="yes"/>
      <point x="833.3" y="644.152"/>
      <point x="731.1" y="708.32"/>
    </contour>
    <contour>
      <point x="474.6" y="407.984" type="curve"/>
      <point x="347.08000000000004" y="407.984" type="line"/>
      <point x="347.08000000000004" y="628.528" type="line"/>
      <point x="482.68000000000006" y="628.528" type="line"/>
      <point x="546.94" y="628.528"/>
      <point x="588.42" y="591.688"/>
      <point x="588.42" y="525.0" type="curve" smooth="yes"/>
      <point x="588.42" y="448.65234363632857"/>
      <point x="554.02" y="407.984"/>
    </contour>
    <contour>
      <point x="462.44" y="332.688" type="line"/>
      <point x="563.6399999999999" y="332.688"/>
      <point x="607.6600000000001" y="287.8507113043891"/>
      <point x="607.6600000000001" y="211.336" type="curve" smooth="yes"/>
      <point x="607.6600000000001" y="122.82400000000001"/>
      <point x="555.02" y="81.30399999999999"/>
      <point x="471.06000000000006" y="81.30399999999999" type="curve" smooth="yes"/>
      <point x="347.08000000000004" y="81.30399999999999" type="line"/>
      <point x="347.08000000000004" y="332.688" type="line"/>
    </contour>
  </outline>
</glyph>
<glyph name="blacksquare" format="2">
  <advance width="699.2399999999999"/>
  <outline>
    <contour>
      <point x="101.19999999999999" y="104.0" type="line"/>
      <point x="598.04" y="104.0" type="line"/>
      <point x="598.04" y="522.0" type="line"/>
      <point x="101.19999999999999" y="522.0" type="line"/>
    </contour>
  </outline>
</glyph>
<glyph name="caron.alt" format="2">
  <advance width="594.5"/>
  <anchor x="104.74" y="574.0" name="_right"/>
  <outline>
    <contour>
      <point x="238.8" y="527.664" type="line"/>
      <point x="118.9" y="527.664" type="line"/>
      <point x="118.9" y="537.664" type="line"/>
      <point x="138.14000000000001" y="710.0" type="line"/>
      <point x="336.46" y="710.0" type="line"/>
    </contour>
  </outline>
</glyph>
<glyph name="cent.alt" format="2">
  <advance width="665.8399999999999"/>
  <outline>
    <contour>
      <point x="430.58000000000004" y="81.28000000000002" type="curve" smooth="yes"/>
      <point x="360.24" y="81.28000000000002"/>
      <point x="320.76000000000016" y="144.808"/>
      <point x="320.76000000000016" y="255.488" type="curve" smooth="yes"/>
      <point x="320.76000000000016" y="362.52000000000004"/>
      <point x="347.08000000000004" y="434.20799999999997"/>
      <point x="403.26000000000005" y="434.20799999999997" type="curve" smooth="yes"/>
      <point x="427.04" y="434.20799999999997"/>
      <point x="444.74" y="418.168"/>
      <point x="452.81999999999994" y="390.16" type="curve"/>
      <point x="482.68" y="406.33599999999996"/>
      <point x="481.68000000000006" y="456.808"/>
      <point x="431.58000000000004" y="458.13599999999997" type="curve"/>
      <point x="431.58000000000004" y="325.672" type="line"/>
      <point x="632.4399999999999" y="325.672" type="line"/>
      <point x="632.4399999999999" y="459.47999999999996" type="line"/>
      <point x="607.6600000000001" y="478.32000000000005"/>
      <point x="531.24" y="522.992"/>
      <point x="377.94" y="522.992" type="curve" smooth="yes"/>
      <point x="169.0" y="522.992"/>
      <point x="23.78000000000001" y="422.30400000000003"/>
      <point x="23.78000000000001" y="255.488" type="curve" smooth="yes"/>
      <point x="23.78000000000001" y="88.016"/>
      <point x="174.54000000000002" y="-10.0"/>
      <point x="374.4" y="-10.0" type="curve" smooth="yes"/>
      <point x="523.16" y="-10.0"/>
      <point x="595.5" y="51.656000000000006"/>
      <point x="646.6" y="136.96" type="curve"/>
      <point x="558.5600000000002" y="183.616" type="line"/>
      <point x="531.24" y="139.28"/>
      <point x="493.3" y="81.28000000000002"/>
    </contour>
    <contour>
      <point x="438.66" y="490.008" type="line"/>
      <point x="438.66" y="623.0" type="line"/>
      <point x="319.76" y="623.0" type="line"/>
      <point x="319.76" y="488.496" type="line"/>
    </contour>
    <contour>
      <point x="319.76" y="44.279999999999994" type="line"/>
      <point x="319.76" y="-126.0" type="line"/>
      <point x="438.66" y="-126.0" type="line"/>
      <point x="438.66" y="45.791999999999994" type="line"/>
    </contour>
  </outline>
</glyph>
<glyph name="circumflex_tilde.uc" format="2">
  <advance width="594.5"/>
  <anchor x="288.9" y="694.0" name="_top"/>
  <outline>
    <contour>
      <point x="414.88" y="891.288" type="line"/>
      <point x="543.4" y="776.312" type="line"/>
      <point x="543.4" y="749.168" type="line"/>
      <point x="406.8" y="749.168" type="line"/>
      <point x="220.1" y="826.976" type="line"/>
      <point x="387.56000000000006" y="826.976" type="line"/>
      <point x="199.85999999999999" y="749.168" type="line"/>
      <point x="74.88" y="749.168" type="line"/>
      <point x="74.88" y="776.312" type="line"/>
      <point x="204.39999999999998" y="891.288" type="line"/>
    </contour>
    <contour>
      <point x="384.02" y="921.9599999999999" type="curve" smooth="yes"/>
      <point x="469.52" y="921.9599999999999"/>
      <point x="523.1600000000001" y="967.7817120027554"/>
      <point x="545.94" y="1050.056" type="curve"/>
      <point x="437.65999999999997" y="1079.8719999999998" type="line"/>
      <point x="427.0400000000001" y="1049.8768992209107"/>
      <point x="413.88000000000005" y="1033.8719999999998"/>
      <point x="387.5600000000001" y="1033.8719999999998" type="curve" smooth="yes"/>
      <point x="345.08000000000004" y="1033.8719999999998"/>
      <point x="318.76" y="1078.2"/>
      <point x="231.72" y="1078.2" type="curve" smooth="yes"/>
      <point x="140.14000000000001" y="1078.2"/>
      <point x="94.12000000000002" y="1033.0376337036182"/>
      <point x="73.88" y="950.768" type="curve"/>
      <point x="182.15999999999997" y="922.7840000000001" type="line"/>
      <point x="190.24" y="953.5995516522862"/>
      <point x="203.4" y="968.12"/>
      <point x="228.18" y="968.12" type="curve" smooth="yes"/>
      <point x="264.11999999999995" y="968.12"/>
      <point x="291.44" y="921.9599999999999"/>
    </contour>
  </outline>
</glyph>
<glyph name="f_f_k" format="2">
  <advance width="1732.4"/>
  <outline>
    <contour>
      <point x="1718.24" y="0.0" type="line"/>
      <point x="1718.24" y="70.79199999999999" type="line"/>
      <point x="1715.6999999999998" y="70.79199999999999" type="line"/>
      <point x="1684.84" y="70.79199999999999"/>
      <point x="1657.52" y="79.28800000000001"/>
      <point x="1640.8200000000002" y="102.96799999999999" type="curve" smooth="yes"/>
      <point x="1444.5" y="364.576" type="line"/>
      <point x="1376.7" y="269.16" type="line"/>
      <point x="1556.3200000000002" y="402.352" type="line" smooth="yes"/>
      <point x="1583.6400000000003" y="424.704"/>
      <point x="1618.04" y="442.2"/>
      <point x="1664.6" y="442.2" type="curve"/>
      <point x="1667.1400000000003" y="442.2" type="line"/>
      <point x="1667.1400000000003" y="512.992" type="line"/>
      <point x="1349.3799999999999" y="512.992" type="line"/>
      <point x="1349.3799999999999" y="442.2" type="line"/>
      <point x="1354.46" y="442.2" type="line"/>
      <point x="1381.7799999999997" y="442.2"/>
      <point x="1433.88" y="439.2"/>
      <point x="1433.88" y="424.2" type="curve"/>
      <point x="1241.1" y="279.656" type="line"/>
      <point x="1241.1" y="250.528" type="line"/>
      <point x="1338.7600000000002" y="79.12799999999999" type="line"/>
      <point x="1338.7600000000002" y="72.96000000000001"/>
      <point x="1318.52" y="70.79199999999999"/>
      <point x="1306.9" y="70.79199999999999" type="curve"/>
      <point x="1303.3600000000001" y="70.79199999999999" type="line"/>
      <point x="1303.3600000000001" y="0.0" type="line"/>
    </contour>
    <contour>
      <point x="-3.552713678800501e-15" y="512.992" type="line"/>
      <point x="-3.552713678800501e-15" y="432.69599999999997" type="line"/>
      <point x="492.3" y="432.69599999999997" type="line"/>
      <point x="492.3" y="512.992" type="line"/>
    </contour>
    <contour>
      <point x="420.96" y="512.992" type="line"/>
      <point x="420.96" y="432.69599999999997" type="line"/>
      <point x="878.8600000000001" y="432.69599999999997" type="line"/>
      <point x="878.8600000000001" y="512.992" type="line"/>
    </contour>
    <contour>
      <point x="885.9399999999998" y="0.0" type="line"/>
      <point x="1253.2600000000002" y="0.0" type="line"/>
      <point x="1253.2600000000002" y="70.79199999999999" type="line"/>
      <point x="1249.7200000000003" y="70.79199999999999" type="line" smooth="yes"/>
      <point x="1237.5600000000002" y="70.79199999999999"/>
      <point x="1217.3200000000002" y="72.96000000000001"/>
      <point x="1217.3200000000002" y="79.12799999999999" type="curve"/>
      <point x="1217.3200000000002" y="730.84" type="line"/>
      <point x="885.9399999999998" y="730.84" type="line"/>
      <point x="926.4200000000002" y="683.176" type="line"/>
      <point x="926.4200000000002" y="79.12799999999999" type="line"/>
      <point x="926.4200000000002" y="72.96000000000002"/>
      <point x="906.1800000000001" y="70.792"/>
      <point x="891.48" y="70.792" type="curve" smooth="yes"/>
      <point x="885.9399999999998" y="70.792" type="line"/>
    </contour>
    <contour>
      <point x="374.4" y="79.12799999999999" type="curve"/>
      <point x="374.4" y="575.304" type="line" smooth="yes"/>
      <point x="374.4" y="633.2080000000001"/>
      <point x="394.64" y="649.552"/>
      <point x="429.04" y="649.552" type="curve" smooth="yes"/>
      <point x="447.28" y="649.552"/>
      <point x="468.52" y="643.048"/>
      <point x="471.0600000000001" y="640.872" type="curve"/>
      <point x="471.0600000000001" y="724.6719999999999" type="line"/>
      <point x="455.3600000000001" y="730.6719999999999"/>
      <point x="412.34000000000003" y="737.168"/>
      <point x="361.24" y="737.168" type="curve" smooth="yes"/>
      <point x="211.48" y="737.168"/>
      <point x="84.49999999999999" y="685.1840000000001"/>
      <point x="84.49999999999999" y="532.872" type="curve" smooth="yes"/>
      <point x="84.49999999999999" y="101.8" type="line"/>
      <point x="84.49999999999999" y="80.28800000000001"/>
      <point x="66.80000000000001" y="70.792"/>
      <point x="33.400000000000006" y="70.792" type="curve" smooth="yes"/>
      <point x="19.24" y="70.792" type="line"/>
      <point x="19.24" y="0.0" type="line"/>
      <point x="418.41999999999996" y="0.0" type="line"/>
      <point x="418.41999999999996" y="70.792" type="line"/>
      <point x="414.88000000000005" y="70.792" type="line" smooth="yes"/>
      <point x="388.56000000000006" y="70.792"/>
      <point x="374.4" y="72.96000000000002"/>
    </contour>
    <contour>
      <point x="795.3600000000001" y="79.12799999999999" type="curve"/>
      <point x="795.3600000000001" y="574.3280000000001" type="line" smooth="yes"/>
      <point x="795.3600000000001" y="637.2239999999999"/>
      <point x="820.1399999999999" y="660.2239999999999"/>
      <point x="871.78" y="660.2239999999999" type="curve" smooth="yes"/>
      <point x="923.8800000000001" y="660.2239999999999"/>
      <point x="958.2800000000001" y="634.904"/>
      <point x="981.0600000000002" y="573.912" type="curve"/>
      <point x="1106.04" y="694.84" type="line"/>
      <point x="1046.3200000000002" y="722.68"/>
      <point x="966.9000000000001" y="747.84"/>
      <point x="840.3800000000001" y="747.84" type="curve" smooth="yes"/>
      <point x="661.3" y="747.84"/>
      <point x="505.4600000000001" y="695.856"/>
      <point x="505.4600000000001" y="543.544" type="curve"/>
      <point x="505.4600000000001" y="79.12799999999999" type="line"/>
      <point x="505.4600000000001" y="72.96000000000002"/>
      <point x="492.29999999999995" y="70.792"/>
      <point x="469.52" y="70.792" type="curve" smooth="yes"/>
      <point x="468.52" y="70.792" type="line"/>
      <point x="468.52" y="0.0" type="line"/>
      <point x="835.8399999999999" y="0.0" type="line"/>
      <point x="835.8399999999999" y="70.792" type="line"/>
      <point x="832.3" y="70.792" type="line" smooth="yes"/>
      <point x="813.0600000000002" y="70.792"/>
      <point x="795.3600000000001" y="72.96000000000002"/>
    </contour>
  </outline>
</glyph>
<glyph name="f_j" format="2">
  <advance width="835.84"/>
  <outline>
    <contour>
      <point x="648.1399999999999" y="566.584" type="curve" smooth="yes"/>
      <point x="740.72" y="566.584"/>
      <point x="795.3600000000001" y="600.4"/>
      <point x="795.3600000000001" y="657.536" type="curve" smooth="yes"/>
      <point x="795.3600000000001" y="714.5039999999999"/>
      <point x="740.72" y="748.32"/>
      <point x="648.1399999999999" y="748.32" type="curve" smooth="yes"/>
      <point x="554.02" y="748.32"/>
      <point x="500.38000000000005" y="714.5039999999999"/>
      <point x="500.38000000000005" y="657.536" type="curve" smooth="yes"/>
      <point x="500.38000000000005" y="599.568"/>
      <point x="554.02" y="566.584"/>
    </contour>
    <contour>
      <point x="-3.552713678800501e-15" y="512.992" type="line"/>
      <point x="-3.552713678800501e-15" y="432.69599999999997" type="line"/>
      <point x="502.91999999999996" y="432.69599999999997" type="line"/>
      <point x="502.91999999999996" y="512.992" type="line"/>
    </contour>
    <contour>
      <point x="505.4600000000001" y="-27.528" type="line" smooth="yes"/>
      <point x="505.4600000000001" y="-117.37599999999999"/>
      <point x="480.14" y="-146.544"/>
      <point x="428.0399999999999" y="-146.544" type="curve" smooth="yes"/>
      <point x="392.64000000000004" y="-146.544"/>
      <point x="363.7800000000001" y="-136.55200000000002"/>
      <point x="340.0" y="-128.888" type="curve"/>
      <point x="340.0" y="-221.008" type="line"/>
      <point x="357.7" y="-227.83999999999997"/>
      <point x="416.41999999999996" y="-236.0"/>
      <point x="486.2199999999999" y="-236.0" type="curve" smooth="yes"/>
      <point x="700.24" y="-236.0"/>
      <point x="795.3600000000001" y="-173.2"/>
      <point x="795.3600000000001" y="-0.9040000000000106" type="curve" smooth="yes"/>
      <point x="795.3600000000001" y="512.992" type="line"/>
      <point x="452.81999999999994" y="512.992" type="line"/>
      <point x="452.81999999999994" y="432.69599999999997" type="line"/>
      <point x="473.05999999999995" y="432.69599999999997" type="line" smooth="yes"/>
      <point x="498.38" y="432.69599999999997"/>
      <point x="505.4600000000001" y="421.688"/>
      <point x="505.4600000000001" y="403.504" type="curve" smooth="yes"/>
    </contour>
    <contour>
      <point x="414.88000000000005" y="0.0" type="line"/>
      <point x="414.88000000000005" y="70.792" type="line"/>
      <point x="407.8" y="70.792" type="line" smooth="yes"/>
      <point x="392.64000000000004" y="70.792"/>
      <point x="374.4" y="72.96000000000002"/>
      <point x="374.4" y="79.12799999999999" type="curve" smooth="yes"/>
      <point x="374.4" y="585.976" type="line" smooth="yes"/>
      <point x="374.4" y="643.88"/>
      <point x="392.64" y="660.2239999999999"/>
      <point x="427.03999999999996" y="660.2239999999999" type="curve" smooth="yes"/>
      <point x="442.2" y="660.2239999999999"/>
      <point x="463.98" y="654.056"/>
      <point x="465.98" y="651.88" type="curve"/>
      <point x="465.98" y="735.344" type="line"/>
      <point x="450.82" y="741.344"/>
      <point x="410.34000000000003" y="747.84"/>
      <point x="359.24" y="747.84" type="curve" smooth="yes"/>
      <point x="209.48000000000002" y="747.84"/>
      <point x="84.49999999999999" y="695.856"/>
      <point x="84.49999999999999" y="543.544" type="curve" smooth="yes"/>
      <point x="84.49999999999999" y="101.8" type="line" smooth="yes"/>
      <point x="84.49999999999999" y="80.28800000000001"/>
      <point x="66.80000000000001" y="70.792"/>
      <point x="33.400000000000006" y="70.792" type="curve" smooth="yes"/>
      <point x="19.24" y="70.792" type="line"/>
      <point x="19.24" y="0.0" type="line"/>
    </contour>
  </outline>
</glyph>
<glyph name="four.old" format="2">
  <advance width="665.8399999999999"/>
  <outline>
    <contour>
      <point x="26.320000000000007" y="9.576" type="line"/>
      <point x="661.3000000000001" y="9.576" type="line"/>
      <point x="661.3000000000001" y="149.792" type="line"/>
      <point x="132.06" y="149.792" type="line"/>
      <point x="91.57999999999998" y="73.016" type="line"/>
      <point x="361.24" y="472.76" type="line"/>
      <point x="379.48" y="548.0" type="line"/>
      <point x="299.52" y="548.0" type="line"/>
      <point x="26.320000000000007" y="151.464" type="line"/>
    </contour>
    <contour>
      <point x="588.4200000000002" y="-145.816" type="line"/>
      <point x="588.4200000000002" y="548.0" type="line"/>
      <point x="337.46" y="548.0" type="line"/>
      <point x="318.76" y="460.592" type="line"/>
      <point x="318.76" y="-145.816" type="line"/>
    </contour>
  </outline>
</glyph>
<glyph name="hook.uc" format="2">
  <advance width="607.6600000000001"/>
  <anchor x="266.12" y="679.0" name="_top"/>
  <outline>
    <contour>
      <point x="123.44" y="858.2080000000001" type="line"/>
      <point x="129.52" y="910.8650875976894"/>
      <point x="182.16" y="961.344"/>
      <point x="309.14000000000004" y="961.344" type="curve" smooth="yes"/>
      <point x="420.9600000000001" y="961.344"/>
      <point x="483.68000000000006" y="930.176"/>
      <point x="483.68000000000006" y="873.1840000000001" type="curve" smooth="yes"/>
      <point x="483.68000000000006" y="805.3309652173488"/>
      <point x="411.34000000000003" y="786.1840000000001"/>
      <point x="291.44000000000005" y="782.68" type="curve"/>
      <point x="352.1600000000001" y="809.3520000000001" type="line"/>
      <point x="352.1600000000001" y="745.1840000000001" type="line"/>
      <point x="228.18000000000006" y="745.1840000000001" type="line"/>
      <point x="228.18000000000006" y="817.52" type="line"/>
      <point x="309.14" y="820.52"/>
      <point x="332.91999999999996" y="832.696"/>
      <point x="332.91999999999996" y="861.2" type="curve" smooth="yes"/>
      <point x="332.91999999999996" y="881.872"/>
      <point x="319.76" y="893.544"/>
      <point x="293.44000000000005" y="893.544" type="curve" smooth="yes"/>
      <point x="265.12" y="893.544"/>
      <point x="250.95999999999998" y="879.2115508697005"/>
      <point x="247.42000000000002" y="858.2080000000001" type="curve"/>
    </contour>
  </outline>
</glyph>
<glyph name="hungarumlaut.uc" format="2">
  <advance width="594.5"/>
  <anchor x="319.76" y="694.0" name="_top"/>
  <outline>
    <contour>
      <point x="122.44000000000001" y="848.176" type="curve" smooth="yes"/>
      <point x="116.36" y="767.688" type="line"/>
      <point x="116.36" y="741.3599999999999" type="line"/>
      <point x="210.48000000000005" y="741.3599999999999" type="line"/>
      <point x="258.04" y="788.688" type="line" smooth="yes"/>
      <point x="311.68000000000006" y="838.152"/>
      <point x="323.3" y="860.976"/>
      <point x="323.3" y="892.6320000000001" type="curve" smooth="yes"/>
      <point x="323.3" y="927.616"/>
      <point x="294.98" y="955.264"/>
      <point x="230.72000000000003" y="955.264" type="curve" smooth="yes"/>
      <point x="154.84000000000003" y="955.264"/>
      <point x="128.52000000000004" y="918.8"/>
    </contour>
    <contour>
      <point x="364.7800000000001" y="848.176" type="curve" smooth="yes"/>
      <point x="359.24" y="767.688" type="line"/>
      <point x="359.24" y="741.3599999999999" type="line"/>
      <point x="452.81999999999994" y="741.3599999999999" type="line"/>
      <point x="500.38" y="788.688" type="line" smooth="yes"/>
      <point x="554.02" y="838.152"/>
      <point x="566.1800000000001" y="860.976"/>
      <point x="566.1800000000001" y="892.6320000000001" type="curve" smooth="yes"/>
      <point x="566.1800000000001" y="927.616"/>
      <point x="537.3199999999999" y="955.264"/>
      <point x="473.06000000000006" y="955.264" type="curve" smooth="yes"/>
      <point x="397.18000000000006" y="955.264"/>
      <point x="370.86" y="918.8"/>
    </contour>
  </outline>
</glyph>
<glyph name="lira.alt" format="2">
  <advance width="665.8399999999999"/>
  <outline>
    <contour>
      <point x="632.4399999999998" y="0.0" type="line"/>
      <point x="632.4399999999998" y="225.792" type="line"/>
      <point x="520.6199999999999" y="225.792" type="line"/>
      <point x="512.54" y="181.56" type="line" smooth="yes"/>
      <point x="503.91999999999996" y="146.392"/>
      <point x="473.06000000000006" y="139.392"/>
      <point x="383.02" y="139.392" type="curve" smooth="yes"/>
      <point x="258.04" y="139.392" type="line"/>
      <point x="161.92000000000002" y="90.11999999999999" type="line"/>
      <point x="332.91999999999996" y="128.952"/>
      <point x="370.85999999999996" y="199.144"/>
      <point x="370.85999999999996" y="273.976" type="curve" smooth="yes"/>
      <point x="370.85999999999996" y="377.144"/>
      <point x="319.76" y="457.76"/>
      <point x="319.76" y="541.472" type="curve" smooth="yes"/>
      <point x="319.76" y="596.1840000000001"/>
      <point x="346.08000000000004" y="626.384"/>
      <point x="387.56000000000006" y="626.384" type="curve" smooth="yes"/>
      <point x="412.34000000000003" y="626.384"/>
      <point x="432.58000000000004" y="614.192"/>
      <point x="444.74" y="596.6719999999999" type="curve"/>
      <point x="475.6" y="604.192"/>
      <point x="479.14000000000004" y="632.3520000000001"/>
      <point x="418.41999999999996" y="632.688" type="curve"/>
      <point x="418.41999999999996" y="548.32" type="line"/>
      <point x="619.2800000000001" y="548.32" type="line"/>
      <point x="619.2800000000001" y="664.656" type="line"/>
      <point x="584.88" y="687.3280000000001"/>
      <point x="499.38" y="719.664"/>
      <point x="367.31999999999994" y="719.664" type="curve" smooth="yes"/>
      <point x="162.91999999999996" y="719.664"/>
      <point x="57.179999999999986" y="633.008"/>
      <point x="57.179999999999986" y="527.32" type="curve" smooth="yes"/>
      <point x="57.179999999999986" y="400.016"/>
      <point x="165.45999999999998" y="344.008"/>
      <point x="165.45999999999998" y="239.83999999999997" type="curve" smooth="yes"/>
      <point x="165.45999999999998" y="181.48000000000002"/>
      <point x="114.36" y="140.95199999999997"/>
      <point x="22.78" y="122.08800000000001" type="curve"/>
      <point x="22.78" y="0.0" type="line"/>
    </contour>
    <contour>
      <point x="21.24" y="492.6" type="line"/>
      <point x="21.24" y="414.808" type="line"/>
      <point x="527.7" y="414.808" type="line"/>
      <point x="527.7" y="492.6" type="line"/>
    </contour>
    <contour>
      <point x="21.24" y="350.912" type="line"/>
      <point x="21.24" y="273.12" type="line"/>
      <point x="527.7" y="273.12" type="line"/>
      <point x="527.7" y="350.912" type="line"/>
    </contour>
  </outline>
</glyph>
<glyph name="plus.sub" format="2">
  <advance width="487.76"/>
  <outline>
    <contour>
      <point x="180.62" y="235.0" type="line"/>
      <point x="180.62" y="-75.0" type="line"/>
      <point x="306.6" y="-75.0" type="line"/>
      <point x="306.6" y="235.0" type="line"/>
    </contour>
    <contour>
      <point x="421.9600000000001" y="124.8" type="line"/>
      <point x="65.26" y="124.8" type="line"/>
      <point x="65.26" y="35.2" type="line"/>
      <point x="421.9600000000001" y="35.2" type="line"/>
    </contour>
  </outline>
</glyph>
<glyph name="rupeeIndian" format="2">
  <advance width="665.8399999999999"/>
  <outline>
    <contour>
      <point x="53.640000000000015" y="518.5039999999999" type="line"/>
      <point x="53.640000000000015" y="428.232" type="line"/>
      <point x="642.0600000000001" y="428.232" type="line"/>
      <point x="642.0600000000001" y="518.5039999999999" type="line"/>
    </contour>
    <contour>
      <point x="132.06" y="259.704" type="line"/>
      <point x="174.54000000000002" y="259.704" type="line" smooth="yes"/>
      <point x="405.26" y="259.704"/>
      <point x="543.4" y="340.9541791837655"/>
      <point x="543.4" y="454.904" type="curve" smooth="yes"/>
      <point x="543.4" y="565.3679999999999"/>
      <point x="473.06305227537996" y="636.3599783975765"/>
      <point x="245.87999999999997" y="644.88" type="curve"/>
      <point x="224.64000000000001" y="682.344"/>
      <point x="101.20000000000002" y="690.176"/>
      <point x="215.02" y="621.3919999999999" type="curve"/>
      <point x="642.0600000000001" y="621.3919999999999" type="line"/>
      <point x="642.0600000000001" y="710.0" type="line"/>
      <point x="53.640000000000015" y="710.0" type="line"/>
      <point x="53.640000000000015" y="617.2239999999999" type="line"/>
      <point x="117.9" y="617.2239999999999" type="line" smooth="yes"/>
      <point x="250.96" y="617.2239999999999"/>
      <point x="289.9" y="563.2159999999999"/>
      <point x="289.9" y="473.208" type="curve" smooth="yes"/>
      <point x="289.9" y="385.024"/>
      <point x="253.5" y="329.344"/>
      <point x="105.74000000000002" y="329.344" type="curve" smooth="yes"/>
      <point x="53.640000000000015" y="329.344" type="line"/>
      <point x="53.640000000000015" y="252.4" type="line"/>
      <point x="305.6" y="0.0" type="line"/>
      <point x="626.3600000000001" y="0.0" type="line"/>
      <point x="626.3600000000001" y="74.45599999999999" type="line"/>
      <point x="612.2" y="74.45599999999999" type="line" smooth="yes"/>
      <point x="578.8000000000001" y="74.45599999999999"/>
      <point x="557.5600000000002" y="81.62400000000001"/>
      <point x="535.3199999999999" y="102.45599999999999" type="curve" smooth="yes"/>
      <point x="320.76" y="303.192" type="line"/>
    </contour>
  </outline>
</glyph>
<glyph name="sterling.alt" format="2">
  <advance width="665.8399999999999"/>
  <outline>
    <contour>
      <point x="23.78" y="409.768" type="line"/>
      <point x="23.78" y="307.848" type="line"/>
      <point x="527.7" y="307.848" type="line"/>
      <point x="527.7" y="409.768" type="line"/>
    </contour>
    <contour>
      <point x="22.780000000000005" y="0.0" type="line"/>
      <point x="632.4399999999999" y="0.0" type="line"/>
      <point x="632.4399999999999" y="246.61599999999999" type="line"/>
      <point x="523.1600000000001" y="246.61599999999999" type="line"/>
      <point x="512.54" y="188.216" type="line" smooth="yes"/>
      <point x="505.4600000000001" y="152.216"/>
      <point x="473.06000000000006" y="145.216"/>
      <point x="383.02" y="145.216" type="curve"/>
      <point x="258.04" y="145.216" type="line"/>
      <point x="161.92000000000002" y="90.12" type="line"/>
      <point x="332.91999999999996" y="128.952"/>
      <point x="370.86000000000007" y="199.144"/>
      <point x="370.86000000000007" y="273.976" type="curve" smooth="yes"/>
      <point x="370.86000000000007" y="377.144"/>
      <point x="319.7600000000001" y="457.76"/>
      <point x="319.7600000000001" y="541.472" type="curve" smooth="yes"/>
      <point x="319.7600000000001" y="595.3520000000001"/>
      <point x="339.0" y="626.384"/>
      <point x="380.48" y="626.384" type="curve" smooth="yes"/>
      <point x="404.26" y="626.384"/>
      <point x="420.9600000000001" y="614.696"/>
      <point x="435.12" y="593.1840000000001" type="curve"/>
      <point x="471.06000000000006" y="599.872"/>
      <point x="462.43999999999994" y="629.696"/>
      <point x="410.34000000000003" y="630.032" type="curve"/>
      <point x="410.34000000000003" y="522.3679999999999" type="line"/>
      <point x="611.2" y="522.3679999999999" type="line"/>
      <point x="611.2" y="662.0" type="line"/>
      <point x="583.8800000000001" y="683.008"/>
      <point x="515.08" y="719.664"/>
      <point x="363.7800000000001" y="719.664" type="curve" smooth="yes"/>
      <point x="163.92000000000002" y="719.664"/>
      <point x="57.17999999999998" y="633.008"/>
      <point x="57.17999999999998" y="527.32" type="curve" smooth="yes"/>
      <point x="57.17999999999998" y="400.016"/>
      <point x="165.45999999999998" y="344.008"/>
      <point x="165.45999999999998" y="239.83999999999997" type="curve" smooth="yes"/>
      <point x="165.45999999999998" y="181.48000000000002"/>
      <point x="114.36000000000001" y="140.95199999999997"/>
      <point x="22.780000000000005" y="122.08800000000001" type="curve"/>
    </contour>
  </outline>
</glyph>
<glyph name="three.lin" format="2">
  <advance width="665.8399999999999"/>
  <outline>
    <contour>
      <point x="309.14000000000004" y="628.88" type="curve" smooth="yes"/>
      <point x="273.2" y="628.88"/>
      <point x="248.42000000000004" y="607.52"/>
      <point x="230.72" y="582.32" type="curve"/>
      <point x="225.64000000000001" y="590.3679999999999"/>
      <point x="222.10000000000002" y="637.664"/>
      <point x="260.5800000000001" y="641.0" type="curve"/>
      <point x="260.5800000000001" y="528.344" type="line"/>
      <point x="60.720000000000006" y="528.344" type="line"/>
      <point x="60.720000000000006" y="644.6400000000001" type="line"/>
      <point x="112.82000000000002" y="683.312"/>
      <point x="211.48000000000002" y="719.664"/>
      <point x="343.5400000000001" y="719.664" type="curve" smooth="yes"/>
      <point x="506.46000000000004" y="719.664"/>
      <point x="633.98" y="665.808"/>
      <point x="633.98" y="551.16" type="curve" smooth="yes"/>
      <point x="633.98" y="425.192"/>
      <point x="464.98" y="371.0"/>
      <point x="253.50000000000003" y="371.0" type="curve"/>
      <point x="274.74" y="389.152" type="line"/>
      <point x="545.94" y="389.152"/>
      <point x="653.6800000000001" y="317.632"/>
      <point x="653.6800000000001" y="200.824" type="curve" smooth="yes"/>
      <point x="653.6800000000001" y="62.848"/>
      <point x="509.0" y="-10.0"/>
      <point x="329.38" y="-10.0" type="curve" smooth="yes"/>
      <point x="136.6" y="-10.0"/>
      <point x="53.640000000000015" y="68.824"/>
      <point x="14.160000000000002" y="159.824" type="curve"/>
      <point x="121.44" y="213.64" type="line"/>
      <point x="149.76" y="159.28"/>
      <point x="190.24000000000004" y="83.28"/>
      <point x="280.81999999999994" y="83.28" type="curve" smooth="yes"/>
      <point x="350.62" y="83.28"/>
      <point x="387.56" y="126.45599999999999"/>
      <point x="387.56" y="208.31199999999998" type="curve" smooth="yes"/>
      <point x="387.56" y="283.0"/>
      <point x="366.31999999999994" y="334.67999999999995"/>
      <point x="248.42" y="334.67999999999995" type="curve" smooth="yes"/>
      <point x="200.85999999999999" y="334.67999999999995" type="line"/>
      <point x="200.85999999999999" y="420.472" type="line"/>
      <point x="234.25999999999996" y="420.472" type="line" smooth="yes"/>
      <point x="336.46" y="420.472"/>
      <point x="375.93999999999994" y="457.81600000000003"/>
      <point x="375.93999999999994" y="544.984" type="curve" smooth="yes"/>
      <point x="375.93999999999994" y="605.3599999999999"/>
      <point x="353.15999999999997" y="628.88"/>
    </contour>
  </outline>
</glyph>
<glyph name="uni20B4.proportional" format="2">
  <advance width="773.1200000000001"/>
  <outline>
    <contour>
      <point x="47.56" y="468.648" type="line"/>
      <point x="47.56" y="392.67999999999995" type="line"/>
      <point x="725.5600000000001" y="392.67999999999995" type="line"/>
      <point x="725.5600000000001" y="468.648" type="line"/>
    </contour>
    <contour>
      <point x="47.56" y="331.8" type="line"/>
      <point x="47.56" y="255.83200000000002" type="line"/>
      <point x="725.5600000000001" y="255.83200000000002" type="line"/>
      <point x="725.5600000000001" y="331.8" type="line"/>
    </contour>
    <contour>
      <point x="359.24000000000007" y="626.888" type="curve" smooth="yes"/>
      <point x="413.88000000000005" y="626.888"/>
      <point x="442.2" y="601.52"/>
      <point x="442.2" y="562.992" type="curve" smooth="yes"/>
      <point x="442.2" y="504.47999999999996"/>
      <point x="380.48" y="470.8"/>
      <point x="295.98" y="448.10400000000004" type="curve"/>
      <point x="590.96" y="432.152" type="line"/>
      <point x="656.22" y="461.152"/>
      <point x="682.54" y="501.496"/>
      <point x="682.54" y="559.656" type="curve" smooth="yes"/>
      <point x="682.54" y="648.6719999999999"/>
      <point x="595.5" y="720.0"/>
      <point x="386.55999999999995" y="720.0" type="curve" smooth="yes"/>
      <point x="233.26" y="720.0"/>
      <point x="141.68" y="679.6719999999999"/>
      <point x="111.82000000000002" y="660.992" type="curve"/>
      <point x="111.82000000000002" y="541.168" type="line"/>
      <point x="275.74" y="541.168" type="line"/>
      <point x="275.74" y="641.3520000000001" type="line"/>
      <point x="234.25999999999996" y="644.512"/>
      <point x="229.72000000000003" y="593.864"/>
      <point x="248.42000000000002" y="580.848" type="curve"/>
      <point x="273.2" y="610.696"/>
      <point x="312.68000000000006" y="626.888"/>
    </contour>
    <contour>
      <point x="431.58" y="83.28" type="curve" smooth="yes"/>
      <point x="368.31999999999994" y="83.28"/>
      <point x="333.91999999999996" y="111.96799999999999"/>
      <point x="333.91999999999996" y="161.184" type="curve" smooth="yes"/>
      <point x="333.91999999999996" y="214.512"/>
      <point x="394.64000000000004" y="271.82399999999996"/>
      <point x="518.6199999999999" y="287.848" type="curve"/>
      <point x="187.7" y="295.0" type="line"/>
      <point x="129.52000000000004" y="273.312"/>
      <point x="90.57999999999998" y="230.15200000000002"/>
      <point x="90.57999999999998" y="169.024" type="curve" smooth="yes"/>
      <point x="90.57999999999998" y="59.168"/>
      <point x="192.78" y="-10.0"/>
      <point x="407.79999999999995" y="-10.0" type="curve" smooth="yes"/>
      <point x="539.8600000000001" y="-10.0"/>
      <point x="645.6" y="27.344"/>
      <point x="700.24" y="57.855999999999995" type="curve"/>
      <point x="700.24" y="196.49599999999998" type="line"/>
      <point x="524.1600000000001" y="196.49599999999998" type="line"/>
      <point x="524.1600000000001" y="85.464" type="line"/>
      <point x="570.72" y="82.304"/>
      <point x="581.3399999999999" y="139.128"/>
      <point x="568.1800000000001" y="142.816" type="curve"/>
      <point x="532.78" y="107.78399999999999"/>
      <point x="499.38" y="83.28"/>
    </contour>
  </outline>
</glyph>
